<svg id="cleopatra-enterprise" data-name="Cleopatra Enterprise" xmlns="http://www.w3.org/2000/svg"
  xmlns:xlink="http://www.w3.org/1999/xlink" viewBox="0 0 500 500">
  <defs>
    <style>
      .cls-1{fill:#f47b20;}.cls-2{clip-path:url(#clip-path);}.cls-3{clip-path:url(#clip-path-2);}.cls-4{clip-path:url(#clip-path-3);}.cls-5{clip-path:url(#clip-path-4);}.cls-6{clip-path:url(#clip-path-5);}.cls-7{clip-path:url(#clip-path-6);}</style>
    <clipPath id="clip-path">
      <path class="cls-1"
        d="M168.25,425.65a64.49,64.49,0,1,0,64.48-64.33,64.39,64.39,0,0,0-64.48,64.33" />
    </clipPath>
    <clipPath id="clip-path-2">
      <path class="cls-1"
        d="M23.27,365.17A69.39,69.39,0,1,0,92.65,296a69.29,69.29,0,0,0-69.38,69.22" />
    </clipPath>
    <clipPath id="clip-path-3">
      <path class="cls-1" d="M10,206.57a74,74,0,1,0,74-73.81,73.89,73.89,0,0,0-74,73.81" />
    </clipPath>
    <clipPath id="clip-path-4">
      <path class="cls-1" d="M209.73,10a82.92,82.92,0,1,0,1.34,0Z" />
    </clipPath>
    <clipPath id="clip-path-5">
      <path class="cls-1"
        d="M161.49,276.6a73.93,73.93,0,1,0,73.94-73.76,73.84,73.84,0,0,0-73.94,73.76" />
    </clipPath>
    <clipPath id="clip-path-6">
      <path class="cls-1" d="M297.54,356.45a60.71,60.71,0,1,0,60.7-60.7,60.71,60.71,0,0,0-60.7,60.7" />
    </clipPath>
  </defs>
  <title>Cleopatra Enterprise</title>
  <path class="cls-1"
    d="M396.2,235.79c1.36,0,2.71-.06,4.05-.11a46,46,0,0,1,.47,6.14A45,45,0,1,1,326.25,208a101.56,101.56,0,0,0,69.83,27.75Z" />
  <path class="cls-1" d="M239,194.93a31.66,31.66,0,1,1,56.41,26A81.76,81.76,0,0,0,239,194.93Z" />
  <path class="cls-1" d="M168.25,425.65a64.49,64.49,0,1,0,64.48-64.33,64.39,64.39,0,0,0-64.48,64.33" />
  <g class="cls-2">
    <rect class="cls-1" x="168.25" y="361.32" width="128.97" height="128.66" />
  </g>
  <path class="cls-1" d="M23.27,365.17A69.39,69.39,0,1,0,92.65,296a69.29,69.29,0,0,0-69.38,69.22" />
  <g class="cls-3">
    <rect class="cls-1" x="23.27" y="295.95" width="138.76" height="138.43" />
  </g>
  <path class="cls-1" d="M10,206.57a74,74,0,1,0,74-73.81,73.89,73.89,0,0,0-74,73.81" />
  <g class="cls-4">
    <rect class="cls-1" x="10" y="132.76" width="147.97" height="147.63" />
  </g>
  <path class="cls-1" d="M209.73,10a82.92,82.92,0,1,0,1.34,0Z" />
  <g class="cls-5">
    <rect class="cls-1" x="127.49" y="9.98" width="165.83" height="165.43" />
  </g>
  <path class="cls-1" d="M161.49,276.6a73.93,73.93,0,1,0,73.94-73.76,73.84,73.84,0,0,0-73.94,73.76" />
  <g class="cls-6">
    <rect class="cls-1" x="161.49" y="202.84" width="147.86" height="147.51" />
  </g>
  <path class="cls-1"
    d="M490,134.15a93.75,93.75,0,0,1-93.8,93.64h-.12a93.74,93.74,0,0,1-93.79-93.51V134a93.86,93.86,0,0,1,187.71.11Z" />
  <path class="cls-1" d="M297.54,356.45a60.71,60.71,0,1,0,60.7-60.7,60.71,60.71,0,0,0-60.7,60.7" />
  <g class="cls-7">
    <rect class="cls-1" x="297.54" y="295.75" width="121.4" height="121.41" />
  </g>
</svg>