<svg width="101" height="20" viewBox="0 0 101 20" fill="none" xmlns="http://www.w3.org/2000/svg">
  <g clip-path="url(#clip0_2818_78081)">
    <path d="M29.6929 6.73346L28.6331 7.96853C28.0879 7.49454 27.5127 7.25081 26.8239 7.25081C25.5021 7.25081 24.5262 8.25562 24.5262 10.8404C24.5262 13.3394 25.4896 14.3876 26.8528 14.3876C27.6852 14.3876 28.2603 14.0022 28.8345 13.5552L29.8114 14.8076C29.4105 15.2098 28.9334 15.5277 28.4079 15.7428C27.8825 15.9578 27.3194 16.0657 26.7516 16.0601C24.1091 16.0601 22.2998 14.2354 22.2998 10.8462C22.2998 7.50032 24.2102 5.66217 26.6948 5.66217C28.0127 5.65639 28.8749 6.04368 29.6929 6.73346Z" fill="#F47B20"/>
    <path d="M37.765 14.1285L37.5357 15.8231H31.7188V5.88477H33.8295V14.1285H37.765Z" fill="#F47B20"/>
    <path d="M41.8579 7.41752V10.0033H44.9908V11.5254H41.8598V14.2682H45.7085V15.8193H39.7471V5.88477H45.6777L45.4484 7.42619L41.8579 7.41752Z" fill="#F47B20"/>
    <path d="M56.3773 10.8547C56.3773 14.1148 54.6971 16.057 51.9679 16.057C49.2386 16.057 47.5449 14.1755 47.5449 10.8547C47.5449 7.60899 49.2395 5.65234 51.9679 5.65234C54.6962 5.65234 56.3773 7.52325 56.3773 10.8547ZM49.7704 10.8547C49.7704 13.4558 50.5892 14.4741 51.9679 14.4741C53.3898 14.4741 54.1509 13.4548 54.1509 10.8547C54.1509 8.25446 53.3898 7.23616 51.9679 7.23616C50.5603 7.23616 49.7704 8.25543 49.7704 10.8547Z" fill="#F47B20"/>
    <path d="M61.7627 5.88477C64.2906 5.88477 65.8417 6.91945 65.8417 9.08804C65.8417 11.3857 64.2039 12.4339 61.9351 12.4339H60.8002V15.8231H58.6895V5.88477H61.7627ZM61.7627 10.8828C62.9264 10.8828 63.6586 10.4378 63.6586 9.08804C63.6586 7.92426 62.9698 7.40789 61.7318 7.40789H60.7983V10.8857L61.7627 10.8828Z" fill="#F47B20"/>
    <path d="M68.5268 13.5967L67.967 15.8231H65.7695L68.8293 5.88477H71.3996L74.4439 15.8231H72.204L71.6433 13.5967H68.5268ZM70.0788 7.45028L68.9295 12.0322H71.2416L70.0788 7.45028Z" fill="#F47B20"/>
    <path d="M79.2133 7.53698V15.8221H77.1025V7.53698H74.46V5.88477H81.9561L81.7268 7.53698H79.2133Z" fill="#F47B20"/>
    <path d="M85.8618 11.931V15.8231H83.751V5.88477H86.8531C89.5101 5.88477 90.8598 6.84816 90.8598 8.85779C90.8598 10.1796 90.2144 10.9686 88.8926 11.5437L91.4629 15.8231H89.065L86.9398 11.931H85.8618ZM86.9677 10.4378C88.0737 10.4378 88.6778 9.97821 88.6778 8.85779C88.6778 7.83852 88.0882 7.39344 86.8097 7.39344H85.8618V10.4378H86.9677Z" fill="#F47B20"/>
    <path d="M94.8666 13.5967L94.3069 15.8231H92.1094L95.1691 5.88477H97.7394L100.784 15.8231H98.5439L97.9832 13.5967H94.8666ZM96.4186 7.45028L95.2693 12.0322H97.5814L96.4186 7.45028Z" fill="#F47B20"/>
    <path d="M6.31252 11.1084C6.31061 11.7185 6.48979 12.3155 6.82738 12.8237C7.16497 13.332 7.64577 13.7286 8.20892 13.9634C8.77207 14.1982 9.39223 14.2607 9.99087 14.1428C10.5895 14.0249 11.1397 13.7321 11.5718 13.3013C12.004 12.8706 12.2985 12.3213 12.4183 11.723C12.538 11.1247 12.4775 10.5044 12.2445 9.94049C12.0114 9.37661 11.6163 8.89457 11.1091 8.55539C10.6019 8.21622 10.0055 8.03516 9.39537 8.03516C8.99112 8.0344 8.59068 8.1133 8.21694 8.26736C7.84319 8.42142 7.50347 8.64761 7.21717 8.93301C6.93088 9.21841 6.70363 9.55742 6.5484 9.93068C6.39318 10.3039 6.31302 10.7041 6.31252 11.1084Z" fill="#F47B20"/>
    <mask id="mask0_2818_78081" style="mask-type:luminance" maskUnits="userSpaceOnUse" x="6" y="8" width="7" height="7">
      <path d="M6.31252 11.1084C6.31061 11.7185 6.48979 12.3155 6.82738 12.8237C7.16497 13.332 7.64577 13.7286 8.20892 13.9634C8.77207 14.1982 9.39223 14.2607 9.99087 14.1428C10.5895 14.0249 11.1397 13.7321 11.5718 13.3013C12.004 12.8706 12.2985 12.3213 12.4183 11.723C12.538 11.1247 12.4775 10.5044 12.2445 9.94049C12.0114 9.37661 11.6163 8.89457 11.1091 8.55539C10.6019 8.21622 10.0055 8.03516 9.39537 8.03516C8.99112 8.0344 8.59068 8.1133 8.21694 8.26736C7.84319 8.42142 7.50347 8.64761 7.21717 8.93301C6.93088 9.21841 6.70363 9.55742 6.5484 9.93068C6.39318 10.3039 6.31302 10.7041 6.31252 11.1084Z" fill="white"/>
    </mask>
    <g mask="url(#mask0_2818_78081)">
      <path d="M12.4734 8.03516H6.3125V14.1816H12.4734V8.03516Z" fill="#F47B20"/>
    </g>
    <path d="M9.54199 7.70709C9.58817 7.51803 9.67562 7.34154 9.79807 7.19027C9.92051 7.039 10.0749 6.9167 10.2502 6.83214C10.4255 6.74759 10.6173 6.70288 10.8119 6.70122C11.0066 6.69956 11.1991 6.74099 11.3758 6.82253C11.5525 6.90408 11.709 7.02373 11.834 7.17288C11.959 7.32204 12.0495 7.49702 12.0989 7.68526C12.1483 7.87351 12.1554 8.07035 12.1198 8.26167C12.0841 8.453 12.0066 8.63406 11.8927 8.79187C11.2821 8.13545 10.4376 7.74577 9.54199 7.70709Z" fill="#F47B20"/>
    <path d="M16.0885 9.40802C16.1444 9.40802 16.2012 9.40802 16.2571 9.40802C16.3018 9.72946 16.2622 10.057 16.1423 10.3585C16.0223 10.6601 15.826 10.9252 15.5727 11.1281C15.3193 11.3309 15.0176 11.4644 14.6971 11.5155C14.3767 11.5667 14.0484 11.5336 13.7445 11.4197C13.4407 11.3057 13.1716 11.1148 12.9638 10.8655C12.7559 10.6163 12.6164 10.3173 12.5589 9.99793C12.5014 9.67853 12.5279 9.34968 12.6358 9.0436C12.7436 8.73752 12.9292 8.46472 13.1742 8.25195C13.9606 8.99512 15.0017 9.40882 16.0837 9.40802H16.0885Z" fill="#F47B20"/>
    <path d="M11.9814 14.3922C11.9814 14.8924 12.1298 15.3813 12.4076 15.7972C12.6855 16.213 13.0805 16.5372 13.5426 16.7286C14.0047 16.92 14.5132 16.9701 15.0037 16.8725C15.4943 16.7749 15.9449 16.5341 16.2986 16.1804C16.6522 15.8267 16.8931 15.3761 16.9907 14.8855C17.0882 14.395 17.0382 13.8865 16.8467 13.4244C16.6553 12.9623 16.3312 12.5674 15.9153 12.2895C15.4995 12.0116 15.0105 11.8633 14.5103 11.8633C13.8397 11.8635 13.1966 12.1301 12.7224 12.6043C12.2482 13.0785 11.9817 13.7216 11.9814 14.3922Z" fill="#F47B20"/>
    <mask id="mask1_2818_78081" style="mask-type:luminance" maskUnits="userSpaceOnUse" x="11" y="11" width="7" height="6">
      <path d="M11.9814 14.3922C11.9814 14.8924 12.1298 15.3813 12.4076 15.7972C12.6855 16.213 13.0805 16.5372 13.5426 16.7286C14.0047 16.92 14.5132 16.9701 15.0037 16.8725C15.4943 16.7749 15.9449 16.5341 16.2986 16.1804C16.6522 15.8267 16.8931 15.3761 16.9907 14.8855C17.0882 14.395 17.0382 13.8865 16.8467 13.4244C16.6553 12.9623 16.3312 12.5674 15.9153 12.2895C15.4995 12.0116 15.0105 11.8633 14.5103 11.8633C13.8397 11.8635 13.1966 12.1301 12.7224 12.6043C12.2482 13.0785 11.9817 13.7216 11.9814 14.3922Z" fill="white"/>
    </mask>
    <g mask="url(#mask1_2818_78081)">
      <path d="M17.0402 11.8633H11.9814V16.922H17.0402V11.8633Z" fill="#F47B20"/>
    </g>
    <path d="M6.59377 17.3189C6.59167 17.8507 6.74747 18.3713 7.04143 18.8145C7.3354 19.2578 7.7543 19.6038 8.24507 19.8088C8.73585 20.0138 9.27643 20.0685 9.79833 19.966C10.3202 19.8636 10.8 19.6085 11.1768 19.2332C11.5536 18.8578 11.8106 18.3791 11.9151 17.8576C12.0197 17.3361 11.9671 16.7953 11.764 16.3037C11.561 15.8121 11.2166 15.3919 10.7745 15.0962C10.3324 14.8004 9.81254 14.6426 9.28067 14.6426C8.92825 14.6421 8.57917 14.711 8.2534 14.8454C7.92762 14.9799 7.63151 15.1772 7.382 15.426C7.13249 15.6749 6.93445 15.9705 6.7992 16.296C6.66396 16.6214 6.59415 16.9703 6.59377 17.3227" fill="#F47B20"/>
    <mask id="mask2_2818_78081" style="mask-type:luminance" maskUnits="userSpaceOnUse" x="6" y="14" width="6" height="7">
      <path d="M6.59377 17.3189C6.59167 17.8507 6.74747 18.3713 7.04143 18.8145C7.3354 19.2578 7.7543 19.6038 8.24507 19.8088C8.73585 20.0138 9.27643 20.0685 9.79833 19.966C10.3202 19.8636 10.8 19.6085 11.1768 19.2332C11.5536 18.8578 11.8106 18.3791 11.9151 17.8576C12.0197 17.3361 11.9671 16.7953 11.764 16.3037C11.561 15.8121 11.2166 15.3919 10.7745 15.0962C10.3324 14.8004 9.81254 14.6426 9.28067 14.6426C8.92825 14.6421 8.57917 14.711 8.2534 14.8454C7.92762 14.9799 7.63151 15.1772 7.382 15.426C7.13249 15.6749 6.93445 15.9705 6.7992 16.296C6.66396 16.6214 6.59415 16.9703 6.59377 17.3227" fill="white"/>
    </mask>
    <g mask="url(#mask2_2818_78081)">
      <path d="M11.9675 14.6387H6.59375V19.9999H11.9675V14.6387Z" fill="#F47B20"/>
    </g>
    <path d="M0.55274 14.8004C0.551596 15.3723 0.72013 15.9316 1.03701 16.4077C1.35389 16.8837 1.80487 17.2551 2.33288 17.4747C2.86089 17.6943 3.44219 17.7524 4.00321 17.6415C4.56423 17.5307 5.07975 17.2559 5.48452 16.8519C5.8893 16.4479 6.16514 15.933 6.27712 15.3722C6.38911 14.8114 6.33221 14.23 6.11363 13.7015C5.89505 13.1731 5.52462 12.7213 5.04921 12.4035C4.5738 12.0857 4.01478 11.916 3.44291 11.916C2.67739 11.916 1.94314 12.2197 1.40129 12.7605C0.859446 13.3012 0.554271 14.0349 0.55274 14.8004Z" fill="#F47B20"/>
    <mask id="mask3_2818_78081" style="mask-type:luminance" maskUnits="userSpaceOnUse" x="0" y="11" width="7" height="7">
      <path d="M0.55274 14.8004C0.551596 15.3723 0.72013 15.9316 1.03701 16.4077C1.35389 16.8837 1.80487 17.2551 2.33288 17.4747C2.86089 17.6943 3.44219 17.7524 4.00321 17.6415C4.56423 17.5307 5.07975 17.2559 5.48452 16.8519C5.8893 16.4479 6.16514 15.933 6.27712 15.3722C6.38911 14.8114 6.33221 14.23 6.11363 13.7015C5.89505 13.1731 5.52462 12.7213 5.04921 12.4035C4.5738 12.0857 4.01478 11.916 3.44291 11.916C2.67739 11.916 1.94314 12.2197 1.40129 12.7605C0.859446 13.3012 0.554271 14.0349 0.55274 14.8004Z" fill="white"/>
    </mask>
    <g mask="url(#mask3_2818_78081)">
      <path d="M6.33404 11.916H0.552734V17.6838H6.33404V11.916Z" fill="#F47B20"/>
    </g>
    <path d="M1.50598e-05 8.18845C-0.00189163 8.79859 0.177293 9.39557 0.514879 9.90381C0.852466 10.412 1.33327 10.8087 1.89642 11.0435C2.45957 11.2783 3.07973 11.3407 3.67837 11.2229C4.27702 11.105 4.82723 10.8122 5.25934 10.3814C5.69145 9.95064 5.98602 9.40135 6.10576 8.80307C6.22549 8.2048 6.16501 7.58445 5.93196 7.02057C5.69891 6.45669 5.30378 5.97464 4.7966 5.63547C4.28943 5.29629 3.69301 5.11524 3.08287 5.11523C2.26691 5.11523 1.48423 5.43871 0.906361 6.01477C0.32849 6.59084 0.00256492 7.3725 1.50598e-05 8.18845Z" fill="#F47B20"/>
    <mask id="mask4_2818_78081" style="mask-type:luminance" maskUnits="userSpaceOnUse" x="0" y="5" width="7" height="7">
      <path d="M1.50598e-05 8.18845C-0.00189163 8.79859 0.177293 9.39557 0.514879 9.90381C0.852466 10.412 1.33327 10.8087 1.89642 11.0435C2.45957 11.2783 3.07973 11.3407 3.67837 11.2229C4.27702 11.105 4.82723 10.8122 5.25934 10.3814C5.69145 9.95064 5.98602 9.40135 6.10576 8.80307C6.22549 8.2048 6.16501 7.58445 5.93196 7.02057C5.69891 6.45669 5.30378 5.97464 4.7966 5.63547C4.28943 5.29629 3.69301 5.11524 3.08287 5.11523C2.26691 5.11523 1.48423 5.43871 0.906361 6.01477C0.32849 6.59084 0.00256492 7.3725 1.50598e-05 8.18845Z" fill="white"/>
    </mask>
    <g mask="url(#mask4_2818_78081)">
      <path d="M6.1657 5.11523H0V11.2665H6.1657V5.11523Z" fill="#F47B20"/>
    </g>
    <path d="M8.32133 0C7.40744 0.00789837 6.5339 0.377495 5.89187 1.02791C5.24983 1.67832 4.89159 2.55658 4.89554 3.47049C4.89949 4.3844 5.26531 5.25953 5.91294 5.90437C6.56057 6.54921 7.43727 6.91124 8.35119 6.91124C9.26511 6.91124 10.1418 6.54921 10.7894 5.90437C11.4371 5.25953 11.8029 4.3844 11.8068 3.47049C11.8108 2.55658 11.4526 1.67832 10.8105 1.02791C10.1685 0.377495 9.29494 0.00789837 8.38106 0L8.32133 0Z" fill="#F47B20"/>
    <mask id="mask5_2818_78081" style="mask-type:luminance" maskUnits="userSpaceOnUse" x="4" y="0" width="8" height="7">
      <path d="M8.32133 0C7.40744 0.00789837 6.5339 0.377495 5.89187 1.02791C5.24983 1.67832 4.89159 2.55658 4.89554 3.47049C4.89949 4.3844 5.26531 5.25953 5.91294 5.90437C6.56057 6.54921 7.43727 6.91124 8.35119 6.91124C9.26511 6.91124 10.1418 6.54921 10.7894 5.90437C11.4371 5.25953 11.8029 4.3844 11.8068 3.47049C11.8108 2.55658 11.4526 1.67832 10.8105 1.02791C10.1685 0.377495 9.29494 0.00789837 8.38106 0L8.32133 0Z" fill="white"/>
    </mask>
    <g mask="url(#mask5_2818_78081)">
      <path d="M11.8049 0H4.89551V6.89306H11.8049V0Z" fill="#F47B20"/>
    </g>
    <path d="M19.9995 5.17501C19.999 5.68802 19.8974 6.1959 19.7006 6.66963C19.5037 7.14335 19.2154 7.57364 18.8522 7.9359C18.4889 8.29815 18.0579 8.58528 17.5836 8.78087C17.1093 8.97646 16.6012 9.07667 16.0882 9.07579C15.0536 9.07655 14.061 8.6667 13.3284 7.93624C12.5957 7.20577 12.183 6.2144 12.1807 5.17983V5.16923C12.1814 4.13213 12.5942 3.13781 13.328 2.40501C14.0619 1.67221 15.0569 1.26095 16.094 1.26172C17.1311 1.26249 18.1254 1.67521 18.8582 2.40909C19.591 3.14298 20.0022 4.13791 20.0015 5.17501H19.9995Z" fill="#F47B20"/>
  </g>
</svg>
